<svg width="34" height="42" viewBox="0 0 34 42" fill="none" xmlns="http://www.w3.org/2000/svg">
    <path
        d="M17.9594 25.5195L9.80768 28.0091C9.59623 28.0736 9.41058 28.2074 9.27852 28.3905C9.14646 28.5736 9.07509 28.7961 9.07509 29.0248C9.07509 29.2535 9.14646 29.4761 9.27852 29.6592C9.41058 29.8423 9.59623 29.9761 9.80768 30.0405L17.9594 32.5302L20.3584 40.9899C20.4205 41.2093 20.5494 41.4019 20.7259 41.5389C20.9023 41.6759 21.1167 41.75 21.3371 41.75C21.5574 41.75 21.7719 41.6759 21.9483 41.5389C22.1247 41.4019 22.2536 41.2093 22.3158 40.9899L24.7158 32.5302L32.8675 30.0405C33.079 29.9761 33.2646 29.8423 33.3967 29.6592C33.5287 29.4761 33.6001 29.2535 33.6001 29.0248C33.6001 28.7961 33.5287 28.5736 33.3967 28.3905C33.2646 28.2074 33.079 28.0736 32.8675 28.0091L24.7158 25.5195L22.3158 17.0598C22.2537 16.8404 22.1248 16.6477 21.9483 16.5107C21.7719 16.3736 21.5575 16.2995 21.3371 16.2995C21.1167 16.2995 20.9023 16.3736 20.7258 16.5107C20.5494 16.6477 20.4205 16.8404 20.3584 17.0598L17.9594 25.5195Z"
        fill="#7042F0" />
    <path
        d="M27.9321 10.3346L32.3543 8.98276C32.5657 8.91828 32.7513 8.78449 32.8833 8.6014C33.0154 8.41831 33.0867 8.19578 33.0867 7.96709C33.0867 7.73841 33.0154 7.51587 32.8833 7.33278C32.7513 7.1497 32.5657 7.0159 32.3543 6.95143L27.9321 5.60059L26.6294 1.01027C26.5673 0.790829 26.4383 0.598168 26.2619 0.461118C26.0855 0.324068 25.871 0.25 25.6506 0.25C25.4303 0.25 25.2158 0.324068 25.0394 0.461118C24.8629 0.598168 24.734 0.790829 24.6719 1.01027L23.3702 5.60059L18.9471 6.95143C18.7357 7.01588 18.55 7.14966 18.418 7.33275C18.2859 7.51584 18.2146 7.73839 18.2146 7.96709C18.2146 8.19579 18.2859 8.41834 18.418 8.60143C18.55 8.78452 18.7357 8.91831 18.9471 8.98276L23.3702 10.3346L24.6719 14.9239C24.734 15.1434 24.8629 15.336 25.0394 15.4731C25.2158 15.6101 25.4303 15.6842 25.6506 15.6842C25.871 15.6842 26.0855 15.6101 26.2619 15.4731C26.4383 15.336 26.5673 15.1434 26.6294 14.9239L27.9321 10.3346Z"
        fill="#7042F0" />
    <path
        d="M5.49703 12.2565L1.03503 14.1451C0.847305 14.2246 0.686661 14.3603 0.573578 14.535C0.460491 14.7096 0.400097 14.9152 0.400097 15.1256C0.400097 15.336 0.460491 15.5417 0.573578 15.7163C0.686661 15.8909 0.847305 16.0267 1.03503 16.1061L5.49703 17.9948L7.31694 22.6255C7.39355 22.8203 7.52433 22.987 7.69262 23.1043C7.8609 23.2217 8.05905 23.2844 8.2618 23.2844C8.46454 23.2844 8.66269 23.2217 8.83098 23.1043C8.99926 22.987 9.13005 22.8203 9.20666 22.6255L11.0266 17.9948L15.4876 16.1061C15.6754 16.0266 15.836 15.8909 15.9491 15.7163C16.0622 15.5417 16.1225 15.336 16.1225 15.1256C16.1225 14.9152 16.0622 14.7096 15.9491 14.535C15.836 14.3603 15.6754 14.2246 15.4876 14.1451L11.0266 12.2565L9.20666 7.62684C9.13005 7.43204 8.99926 7.26532 8.83098 7.14797C8.66269 7.03062 8.46454 6.96795 8.2618 6.96795C8.05905 6.96795 7.8609 7.03062 7.69262 7.14797C7.52433 7.26532 7.39355 7.43204 7.31694 7.62684L5.49703 12.2565Z"
        fill="#7042F0" />
</svg>
