 <svg
                    width="40"
                    height="40"
                    viewBox="0 0 40 40"
                    fill="none"
                    xmlns="http://www.w3.org/2000/svg">
                    <path
                        fill-rule="evenodd"
                        clip-rule="evenodd"
                        d="M5.02857 11C3.69491 11 2.41587 11.5234 1.47283 12.455C0.529794 13.3866 0 14.6502 0 15.9677V34.0323C0 35.3498 0.529794 36.6133 1.47283 37.545C2.41587 38.4766 3.69491 39 5.02857 39H26.9714C28.3051 39 29.5841 38.4766 30.5272 37.545C31.4702 36.6133 32 35.3498 32 34.0323V34L32 33.4L29.2571 30.7626L24.2834 25.849C24.1534 25.7117 23.994 25.6048 23.8169 25.5361C23.6397 25.4673 23.4493 25.4385 23.2594 25.4516C23.0674 25.4627 22.8795 25.5115 22.7068 25.5952C22.5341 25.679 22.38 25.796 22.2537 25.9394L19.8949 28.7394L11.4834 20.4297C11.3595 20.2996 11.209 20.1969 11.042 20.1284C10.8749 20.0598 10.6951 20.0271 10.5143 20.0323C10.3222 20.0433 10.1343 20.0921 9.96162 20.1759C9.78891 20.2596 9.63488 20.3766 9.50857 20.52L2.74286 28.4865V15.9677C2.74286 15.3689 2.98367 14.7945 3.41233 14.371C3.84098 13.9476 4.42236 13.7097 5.02857 13.7097H14.2194V12.3548V11H5.02857ZM2.74316 34.0326V32.7139L10.606 23.3926L18.1397 30.8352L13.5317 36.2545H5.02888C4.42895 36.2546 3.85305 36.0217 3.42543 35.606C2.99781 35.1903 2.75276 34.6252 2.74316 34.0326ZM17.0975 36.2906L23.406 28.8119L29.166 34.5023C29.0649 35.0045 28.7913 35.4568 28.3914 35.7827C27.9916 36.1086 27.4901 36.288 26.9717 36.2906H22.0346H17.0975Z"
                        fill="#8D92A5" />
                    <path
                        d="M28.6935 19.2671L22.8007 21.0668C22.6478 21.1134 22.5136 21.2101 22.4181 21.3425C22.3227 21.4749 22.2711 21.6357 22.2711 21.8011C22.2711 21.9664 22.3227 22.1273 22.4181 22.2597C22.5136 22.392 22.6478 22.4887 22.8007 22.5353L28.6935 24.3351L30.4277 30.4505C30.4726 30.6091 30.5658 30.7484 30.6933 30.8474C30.8209 30.9465 30.9759 31 31.1352 31C31.2945 31 31.4495 30.9465 31.577 30.8474C31.7045 30.7484 31.7977 30.6091 31.8427 30.4505L33.5776 24.3351L39.4704 22.5353C39.6233 22.4887 39.7575 22.392 39.8529 22.2597C39.9484 22.1273 40 21.9664 40 21.8011C40 21.6357 39.9484 21.4749 39.8529 21.3425C39.7575 21.2101 39.6233 21.1134 39.4704 21.0668L33.5776 19.2671L31.8427 13.1517C31.7978 12.993 31.7046 12.8538 31.577 12.7547C31.4495 12.6556 31.2945 12.6021 31.1352 12.6021C30.9759 12.6021 30.8208 12.6556 30.6933 12.7547C30.5658 12.8538 30.4726 12.993 30.4277 13.1517L28.6935 19.2671Z"
                        fill="#7042F0" />
                    <path
                        d="M35.9026 8.29011L39.0994 7.31284C39.2522 7.26623 39.3864 7.16951 39.4819 7.03716C39.5773 6.9048 39.6289 6.74394 39.6289 6.57862C39.6289 6.41331 39.5773 6.25244 39.4819 6.12008C39.3864 5.98773 39.2522 5.89101 39.0994 5.8444L35.9026 4.8679L34.9609 1.54959C34.916 1.39096 34.8228 1.25169 34.6953 1.15262C34.5677 1.05354 34.4127 1 34.2534 1C34.0941 1 33.9391 1.05354 33.8115 1.15262C33.684 1.25169 33.5908 1.39096 33.5459 1.54959L32.6049 4.8679L29.4075 5.8444C29.2546 5.891 29.1204 5.98771 29.025 6.12006C28.9295 6.25241 28.8779 6.41329 28.8779 6.57862C28.8779 6.74395 28.9295 6.90483 29.025 7.03718C29.1204 7.16953 29.2546 7.26624 29.4075 7.31284L32.6049 8.29011L33.5459 11.6076C33.5908 11.7663 33.684 11.9056 33.8115 12.0046C33.9391 12.1037 34.0941 12.1572 34.2534 12.1572C34.4127 12.1572 34.5677 12.1037 34.6953 12.0046C34.8228 11.9056 34.916 11.7663 34.9609 11.6076L35.9026 8.29011Z"
                        fill="#7042F0" />
                    <path
                        d="M19.6845 9.67937L16.459 11.0447C16.3233 11.1021 16.2072 11.2002 16.1254 11.3265C16.0437 11.4527 16 11.6014 16 11.7535C16 11.9056 16.0437 12.0542 16.1254 12.1805C16.2072 12.3067 16.3233 12.4048 16.459 12.4623L19.6845 13.8276L21.0001 17.175C21.0555 17.3159 21.1501 17.4364 21.2717 17.5212C21.3934 17.606 21.5366 17.6514 21.6832 17.6514C21.8297 17.6514 21.973 17.606 22.0946 17.5212C22.2163 17.4364 22.3108 17.3159 22.3662 17.175L23.6818 13.8276L26.9067 12.4623C27.0424 12.4048 27.1585 12.3067 27.2402 12.1805C27.322 12.0542 27.3656 11.9056 27.3656 11.7535C27.3656 11.6014 27.322 11.4527 27.2402 11.3265C27.1585 11.2002 27.0424 11.1021 26.9067 11.0447L23.6818 9.67937L22.3662 6.33266C22.3108 6.19183 22.2163 6.07132 22.0946 5.98648C21.973 5.90165 21.8297 5.85635 21.6832 5.85635C21.5366 5.85635 21.3934 5.90165 21.2717 5.98648C21.1501 6.07132 21.0555 6.19183 21.0001 6.33266L19.6845 9.67937Z"
                        fill="#7042F0" />
                </svg>