<svg width="24" height="24" viewBox="0 0 24 24" fill="none" xmlns="http://www.w3.org/2000/svg">
<path d="M10.4733 15.2442C10.2808 15.2295 10.1016 15.1399 9.97434 14.9947L6.98036 12.0007C6.91366 11.8611 6.89189 11.7041 6.91807 11.5516C6.94424 11.399 7.01707 11.2583 7.12652 11.1489C7.23597 11.0394 7.37665 10.9666 7.52921 10.9404C7.68176 10.9143 7.83868 10.936 7.97836 11.0027L10.4434 13.4678L18.9563 5.01479C19.0959 4.94808 19.2528 4.92632 19.4054 4.95249C19.558 4.97867 19.6986 5.05149 19.8081 5.16094C19.9175 5.27039 19.9904 5.41108 20.0165 5.56363C20.0427 5.71619 20.021 5.87311 19.9542 6.01278L10.9723 14.9947C10.845 15.1399 10.6659 15.2295 10.4733 15.2442Z" fill="#426BF0"/>
<path d="M11.9703 20.9827C10.365 20.9801 8.78975 20.5474 7.40844 19.7295C6.02712 18.9116 4.89025 17.7384 4.11614 16.3321C3.52771 15.2842 3.16404 14.1252 3.04829 12.9289C2.86564 11.1745 3.20359 9.40521 4.01998 7.84164C4.83637 6.27807 6.09507 4.98949 7.63905 4.13663C8.68696 3.5482 9.84597 3.18453 11.0422 3.06878C12.2339 2.94059 13.4393 3.05603 14.5851 3.4081C14.6873 3.42853 14.7842 3.4701 14.8694 3.53014C14.9547 3.59019 15.0264 3.66738 15.0801 3.75678C15.1338 3.84618 15.1682 3.9458 15.1811 4.04927C15.1941 4.15274 15.1852 4.25777 15.1552 4.35762C15.1252 4.45748 15.0746 4.54996 15.0068 4.62914C14.9389 4.70832 14.8553 4.77244 14.7612 4.81741C14.6671 4.86237 14.5647 4.88719 14.4604 4.89025C14.3562 4.89332 14.2525 4.87458 14.1559 4.83523C13.1865 4.54373 12.1686 4.44873 11.162 4.55579C10.167 4.65767 9.20286 4.9598 8.32766 5.444C7.48449 5.90917 6.73901 6.53267 6.13208 7.2803C5.5072 8.04193 5.04058 8.92059 4.75954 9.86482C4.47849 10.809 4.38869 11.7999 4.49538 12.7792C4.59726 13.7742 4.89939 14.7383 5.38359 15.6135C5.84876 16.4567 6.47226 17.2022 7.21989 17.8091C7.98152 18.434 8.86018 18.9006 9.80441 19.1817C10.7486 19.4627 11.7395 19.5525 12.7188 19.4458C13.7138 19.3439 14.6779 19.0418 15.5531 18.5576C16.3963 18.0924 17.1418 17.4689 17.7487 16.7213C18.3736 15.9597 18.8402 15.081 19.1212 14.1368C19.4023 13.1926 19.4921 12.2017 19.3854 11.2224C19.3756 11.1195 19.3861 11.0157 19.4164 10.9169C19.4467 10.8181 19.4961 10.7262 19.5619 10.6465C19.6277 10.5668 19.7086 10.5008 19.7999 10.4524C19.8912 10.4039 19.9911 10.3739 20.094 10.3641C20.1969 10.3543 20.3007 10.3648 20.3995 10.3951C20.4983 10.4254 20.5902 10.4748 20.6699 10.5406C20.7496 10.6064 20.8155 10.6873 20.864 10.7786C20.9124 10.8699 20.9424 10.9698 20.9522 11.0727C21.134 12.8281 20.7945 14.5982 19.9763 16.1619C19.1581 17.7255 17.8973 19.0135 16.3515 19.865C15.2925 20.4775 14.1156 20.8584 12.8985 20.9827C12.5891 20.9827 12.2697 20.9827 11.9703 20.9827Z" fill="#426BF0"/>
</svg>
