<svg width="32" height="32" viewBox="0 0 32 32" fill="none" xmlns="http://www.w3.org/2000/svg">
<path d="M17.8286 20.3429H10.5143C9.84746 20.3429 9.20794 20.078 8.73642 19.6064C8.2649 19.1349 8 18.4954 8 17.8286V10.5143C8 9.84746 8.2649 9.20794 8.73642 8.73642C9.20794 8.2649 9.84746 8 10.5143 8H17.8286C18.4954 8 19.1349 8.2649 19.6064 8.73642C20.078 9.20794 20.3429 9.84746 20.3429 10.5143V17.8286C20.3429 18.4954 20.078 19.1349 19.6064 19.6064C19.1349 20.078 18.4954 20.3429 17.8286 20.3429ZM10.5143 9.37143C10.2112 9.37143 9.92049 9.49184 9.70616 9.70616C9.49184 9.92049 9.37143 10.2112 9.37143 10.5143V17.8286C9.37143 18.1317 9.49184 18.4224 9.70616 18.6367C9.92049 18.851 10.2112 18.9714 10.5143 18.9714H17.8286C18.1317 18.9714 18.4224 18.851 18.6367 18.6367C18.851 18.4224 18.9714 18.1317 18.9714 17.8286V10.5143C18.9714 10.2112 18.851 9.92049 18.6367 9.70616C18.4224 9.49184 18.1317 9.37143 17.8286 9.37143H10.5143Z" fill="#515667"/>
<path d="M21.4859 24H14.1716C13.5048 24 12.8653 23.7351 12.3938 23.2635C11.9222 22.792 11.6573 22.1525 11.6573 21.4857V19.6571H13.0288V21.4857C13.0288 21.7888 13.1492 22.0795 13.3635 22.2938C13.5778 22.5081 13.8685 22.6285 14.1716 22.6285H21.4859C21.789 22.6285 22.0797 22.5081 22.294 22.2938C22.5084 22.0795 22.6288 21.7888 22.6288 21.4857V14.1714C22.6288 13.8683 22.5084 13.5776 22.294 13.3633C22.0797 13.1489 21.789 13.0285 21.4859 13.0285H19.6573V11.6571H21.4859C22.1528 11.6571 22.7923 11.922 23.2638 12.3935C23.7353 12.865 24.0002 13.5046 24.0002 14.1714V21.4857C24.0002 22.1525 23.7353 22.792 23.2638 23.2635C22.7923 23.7351 22.1528 24 21.4859 24Z" fill="#515667"/>
</svg>
