<svg width="20" height="20" viewBox="0 0 20 20" fill="none" xmlns="http://www.w3.org/2000/svg">
<path d="M15.4483 18H4.50731C3.84233 18 3.20458 17.7351 2.73437 17.2636C2.26416 16.7921 2 16.1525 2 15.4857V4.51429C2 3.84746 2.26416 3.20794 2.73437 2.73642C3.20458 2.2649 3.84233 2 4.50731 2H9.9778C10.1592 2 10.3331 2.07224 10.4613 2.20084C10.5896 2.32944 10.6616 2.50385 10.6616 2.68571C10.6616 2.86758 10.5896 3.04199 10.4613 3.17059C10.3331 3.29918 10.1592 3.37143 9.9778 3.37143H4.50731C4.20504 3.37143 3.91516 3.49184 3.70143 3.70616C3.4877 3.92049 3.36762 4.21118 3.36762 4.51429V15.4857C3.36762 15.7888 3.4877 16.0795 3.70143 16.2938C3.91516 16.5082 4.20504 16.6286 4.50731 16.6286H15.4483C15.7505 16.6286 16.0404 16.5082 16.2542 16.2938C16.4679 16.0795 16.588 15.7888 16.588 15.4857V10C16.588 9.81814 16.66 9.64372 16.7883 9.51513C16.9165 9.38653 17.0904 9.31429 17.2718 9.31429C17.4531 9.31429 17.6271 9.38653 17.7553 9.51513C17.8835 9.64372 17.9556 9.81814 17.9556 10V15.4857C17.9556 16.1525 17.6914 16.7921 17.2212 17.2636C16.751 17.7351 16.1133 18 15.4483 18Z" fill="#515667"/>
<path d="M17.2717 7.02857C17.0911 7.0262 16.9185 6.9532 16.7908 6.82511C16.6631 6.69702 16.5903 6.52398 16.5879 6.34286V3.37143H13.6247C13.4434 3.37143 13.2694 3.29918 13.1412 3.17059C13.013 3.04199 12.9409 2.86758 12.9409 2.68571C12.9409 2.50385 13.013 2.32944 13.1412 2.20084C13.2694 2.07224 13.4434 2 13.6247 2H17.2717C17.4523 2.00237 17.6249 2.07537 17.7526 2.20346C17.8804 2.33155 17.9532 2.50459 17.9555 2.68571V6.34286C17.9532 6.52398 17.8804 6.69702 17.7526 6.82511C17.6249 6.9532 17.4523 7.0262 17.2717 7.02857Z" fill="#515667"/>
<path d="M11.3455 9.31434C11.1695 9.30085 11.0059 9.2188 10.8896 9.08577C10.7774 8.96005 10.7155 8.79729 10.7155 8.62862C10.7155 8.45995 10.7774 8.2972 10.8896 8.17148L16.8159 2.22862C16.8785 2.16125 16.954 2.10722 17.0379 2.06974C17.1218 2.03226 17.2123 2.01211 17.3042 2.01048C17.396 2.00886 17.4872 2.0258 17.5723 2.06028C17.6575 2.09477 17.7348 2.1461 17.7998 2.21122C17.8647 2.27633 17.9159 2.35389 17.9503 2.43928C17.9847 2.52466 18.0016 2.61612 17.9999 2.70819C17.9983 2.80026 17.9782 2.89106 17.9408 2.97517C17.9035 3.05929 17.8496 3.13499 17.7824 3.19777L11.8013 9.08577C11.685 9.2188 11.5214 9.30085 11.3455 9.31434Z" fill="#515667"/>
</svg>
