<svg width="64" height="56" viewBox="0 0 64 56" fill="none" xmlns="http://www.w3.org/2000/svg">
<path d="M0 14C0 6.26801 6.26801 0 14 0H50C57.732 0 64 6.26801 64 14V42C64 49.732 57.732 56 50 56H14C6.26801 56 0 49.732 0 42V14Z" fill="#C336E5" fill-opacity="0.15"/>
<path d="M30.6667 19.8427V37.6533C30.6663 38.206 30.4709 38.7407 30.1149 39.1634C29.7589 39.5861 29.2651 39.8695 28.7206 39.9639C28.1761 40.0582 27.6158 39.9574 27.1383 39.6791C26.6609 39.4008 26.297 38.963 26.1107 38.4427L23.248 30.2427M23.248 30.2427C22.1163 29.7615 21.1856 28.9054 20.6134 27.8169C20.0412 26.7284 19.8626 25.4756 20.108 24.2705C20.3533 23.0655 21.0074 21.9822 21.9596 21.204C22.9118 20.4258 24.1036 20.0005 25.3334 20H27.776C33.2427 20 37.9427 18.3547 40 16V34.6667C37.9427 32.312 33.244 30.6667 27.776 30.6667H25.3334C24.6169 30.6677 23.9076 30.5226 23.248 30.2427ZM40 29.3333C41.0609 29.3333 42.0783 28.9119 42.8285 28.1618C43.5786 27.4116 44 26.3942 44 25.3333C44 24.2725 43.5786 23.2551 42.8285 22.5049C42.0783 21.7548 41.0609 21.3333 40 21.3333" stroke="#C336E5" stroke-width="2.66667" stroke-linecap="round" stroke-linejoin="round"/>
</svg>
