<svg width="16" height="16" viewBox="0 0 16 16" fill="none" xmlns="http://www.w3.org/2000/svg">
<path d="M13.8166 1C13.6377 1.00234 13.4667 1.07446 13.3402 1.201C13.2137 1.32754 13.1416 1.49848 13.1392 1.67742V3.87226L12.3805 3.11355C11.5956 2.32199 10.6214 1.74422 9.55037 1.4351C8.47936 1.12598 7.3471 1.09578 6.26113 1.34736C5.17516 1.59895 4.17152 2.12396 3.34554 2.87255C2.51956 3.62114 1.89866 4.56845 1.54179 5.62452C1.50463 5.7106 1.486 5.80355 1.48711 5.89731C1.48822 5.99107 1.50904 6.08355 1.54822 6.16873C1.58741 6.25392 1.64408 6.32991 1.71455 6.39176C1.78503 6.45361 1.86773 6.49994 1.95728 6.52774C2.03198 6.54073 2.10837 6.54073 2.18308 6.52774C2.32439 6.52631 2.46181 6.4813 2.57659 6.39885C2.69136 6.31641 2.77789 6.20055 2.82437 6.0671C3.0767 5.31751 3.5004 4.63712 4.06179 4.08C5.03688 3.1087 6.3571 2.56335 7.7334 2.56335C9.10971 2.56335 10.4299 3.1087 11.405 4.08L12.1637 4.83871H9.98695C9.80729 4.83871 9.63499 4.91008 9.50795 5.03712C9.3809 5.16416 9.30953 5.33647 9.30953 5.51613C9.30953 5.69579 9.3809 5.8681 9.50795 5.99514C9.63499 6.12218 9.80729 6.19355 9.98695 6.19355H13.8166C13.9059 6.19476 13.9946 6.17807 14.0773 6.14446C14.16 6.11085 14.2352 6.06099 14.2983 5.99784C14.3615 5.9347 14.4113 5.85953 14.445 5.7768C14.4786 5.69406 14.4953 5.60543 14.4941 5.51613V1.67742C14.4941 1.49776 14.4227 1.32545 14.2956 1.19841C14.1686 1.07137 13.9963 1 13.8166 1Z" fill="#426BF0"/>
<path d="M14.0425 9.51742C13.9555 9.48325 13.8625 9.46718 13.7691 9.47021C13.6757 9.47324 13.5839 9.4953 13.4994 9.53505C13.4148 9.57479 13.3392 9.63138 13.2773 9.70134C13.2154 9.77131 13.1684 9.85318 13.1392 9.94194C12.8869 10.6915 12.4632 11.3719 11.9018 11.929C10.9267 12.9003 9.6065 13.4457 8.2302 13.4457C6.85389 13.4457 5.53367 12.9003 4.55858 11.929L3.79987 11.1703H6.03084C6.2105 11.1703 6.38281 11.099 6.50985 10.9719C6.63689 10.8449 6.70826 10.6726 6.70826 10.4929C6.70826 10.3132 6.63689 10.1409 6.50985 10.0139C6.38281 9.88686 6.2105 9.81549 6.03084 9.81549H2.20116C2.11187 9.81427 2.02323 9.83097 1.94049 9.86458C1.85776 9.89819 1.7826 9.94804 1.71945 10.0112C1.6563 10.0743 1.60645 10.1495 1.57283 10.2322C1.53922 10.315 1.52253 10.4036 1.52374 10.4929V14.3226C1.52374 14.5022 1.59511 14.6746 1.72215 14.8016C1.8492 14.9286 2.0215 15 2.20116 15C2.38083 15 2.55313 14.9286 2.68017 14.8016C2.80721 14.6746 2.87858 14.5022 2.87858 14.3226V12.1277L3.63729 12.8865C4.42219 13.678 5.39641 14.2558 6.46742 14.5649C7.53844 14.874 8.67069 14.9042 9.75667 14.6526C10.8426 14.4011 11.8463 13.876 12.6722 13.1275C13.4982 12.3789 14.1191 11.4316 14.476 10.3755C14.5055 10.2908 14.5176 10.201 14.5116 10.1114C14.5057 10.0219 14.4817 9.93454 14.4413 9.85447C14.4008 9.7744 14.3447 9.70329 14.2761 9.64539C14.2076 9.58748 14.1281 9.54396 14.0425 9.51742Z" fill="#426BF0"/>
</svg>
