<svg width="40" height="40" viewBox="0 0 40 40" fill="none" xmlns="http://www.w3.org/2000/svg">
<rect width="40" height="40" rx="8.88889" fill="url(#paint0_linear_268_805)"/>
<path d="M15.705 13.2775C15.8884 12.9795 16.1118 12.8306 16.3754 12.8306C16.5473 12.8306 16.702 12.8936 16.8395 13.0196C16.977 13.1457 17.0457 13.3118 17.0457 13.5181C17.0457 13.6212 17.0171 13.7473 16.9598 13.8963C16.1004 15.9016 15.2352 17.8954 14.3643 19.8778C13.5049 21.8602 12.6398 23.8541 11.7689 25.8594C11.6772 25.9855 11.5741 26.0714 11.4595 26.1172C11.3449 26.1745 11.236 26.2032 11.1329 26.2032C10.961 26.2032 10.8121 26.1402 10.686 26.0141C10.56 25.8881 10.4969 25.7105 10.4969 25.4813C10.4969 25.4469 10.4969 25.4068 10.4969 25.361C10.4969 25.3266 10.5027 25.2865 10.5141 25.2406C11.3735 23.2353 12.233 21.2415 13.0924 19.2591C13.9633 17.2767 14.8342 15.2828 15.705 13.2775ZM26.1755 15.1338C26.2328 14.8817 26.3359 14.7041 26.4848 14.601C26.6453 14.4864 26.8057 14.4406 26.9661 14.4635C27.1266 14.4864 27.2698 14.5723 27.3958 14.7213C27.5219 14.8588 27.5792 15.0536 27.5677 15.3057C27.5104 15.6839 27.4589 16.062 27.413 16.4401C27.3672 16.8068 27.3156 17.1735 27.2583 17.5402H29.2178C29.4355 17.609 29.596 17.7121 29.6991 17.8496C29.8022 17.9871 29.8481 18.1303 29.8366 18.2793C29.8366 18.4168 29.7793 18.5543 29.6647 18.6918C29.5501 18.8179 29.384 18.9038 29.1662 18.9497H27.0693C27.012 19.3163 26.9604 19.6773 26.9146 20.0325C26.8802 20.3878 26.8343 20.743 26.7771 21.0982H28.7537C28.9714 21.167 29.1319 21.2701 29.235 21.4076C29.3381 21.5451 29.384 21.6884 29.3725 21.8373C29.3725 21.9748 29.3152 22.1123 29.2006 22.2498C29.086 22.3759 28.9199 22.4618 28.7022 22.5077H26.588C26.5307 22.9431 26.4734 23.3786 26.4161 23.814C26.3588 24.238 26.3015 24.6677 26.2442 25.1031C26.164 25.3094 26.0494 25.4584 25.9004 25.55C25.7515 25.6417 25.6025 25.6761 25.4535 25.6532C25.316 25.6417 25.1843 25.5729 25.0582 25.4469C24.9436 25.3323 24.8749 25.1604 24.8519 24.9312C24.9092 24.5302 24.9608 24.1291 25.0066 23.7281C25.0639 23.3155 25.1212 22.9087 25.1785 22.5077H22.2737C22.2164 22.9431 22.1534 23.3786 22.0846 23.814C22.0273 24.238 21.97 24.6677 21.9127 25.1031C21.8325 25.3094 21.7179 25.4584 21.569 25.55C21.42 25.6417 21.271 25.6761 21.1221 25.6532C20.9845 25.6417 20.8528 25.5729 20.7267 25.4469C20.6121 25.3323 20.5434 25.1604 20.5205 24.9312C20.5777 24.5302 20.6293 24.1291 20.6752 23.7281C20.7324 23.3155 20.7897 22.9087 20.847 22.5077H19.1969C18.9448 22.4733 18.7558 22.3874 18.6297 22.2498C18.5151 22.1009 18.4578 21.9462 18.4578 21.7858C18.4693 21.6139 18.5381 21.4592 18.6641 21.3217C18.8016 21.1842 18.9964 21.1097 19.2485 21.0982H21.0361C21.0934 20.743 21.1392 20.3878 21.1736 20.0325C21.2195 19.6773 21.271 19.3163 21.3283 18.9497H19.7298C19.4777 18.9153 19.2886 18.8293 19.1626 18.6918C19.048 18.5429 18.9907 18.3882 18.9907 18.2277C19.0021 18.0559 19.0709 17.9012 19.1969 17.7637C19.3345 17.6262 19.5293 17.5517 19.7814 17.5402H21.5174C21.5747 17.1391 21.6262 16.7438 21.6721 16.3542C21.7294 15.9531 21.7867 15.5521 21.844 15.151C21.9013 14.8989 22.0044 14.7213 22.1534 14.6182C22.3138 14.5036 22.4742 14.4577 22.6346 14.4807C22.7951 14.5036 22.9383 14.5895 23.0643 14.7385C23.1904 14.876 23.2477 15.0708 23.2362 15.3229L22.9268 17.5402H25.8317C25.889 17.1391 25.9463 16.7381 26.0036 16.337C26.0609 15.936 26.1182 15.5349 26.1755 15.1338ZM25.3676 21.0982C25.4249 20.743 25.4707 20.3878 25.5051 20.0325C25.5509 19.6773 25.5968 19.3163 25.6426 18.9497H22.7378C22.6919 19.3163 22.6461 19.6773 22.6003 20.0325C22.5544 20.3878 22.5086 20.743 22.4628 21.0982H25.3676Z" fill="white"/>
<path d="M7.57891 21.8693C7.67713 22.0166 7.72624 22.1721 7.72624 22.3358C7.72624 22.4914 7.68531 22.6305 7.60346 22.7533C7.52162 22.8679 7.40703 22.9538 7.2597 23.0111C7.12055 23.0684 6.95685 23.0725 6.7686 23.0234C6.62127 22.9825 6.48621 22.9129 6.36344 22.8147C6.24067 22.7164 6.11789 22.6223 5.99512 22.5323C5.70864 22.3195 5.42626 22.1067 5.14797 21.8939C4.86968 21.681 4.5873 21.4682 4.30083 21.2554C4.21898 21.1899 4.11666 21.1204 3.99389 21.0467C3.8793 20.973 3.7688 20.8912 3.6624 20.8012C3.55599 20.7029 3.47005 20.5965 3.40457 20.4819C3.33909 20.3674 3.31454 20.2405 3.3309 20.1013C3.36364 19.8885 3.44959 19.7248 3.58873 19.6102C3.73606 19.4875 3.89158 19.3647 4.05528 19.2419C4.33357 19.0291 4.60776 18.8122 4.87787 18.5912C5.15616 18.3702 5.43444 18.1492 5.71273 17.9282C5.87643 17.7973 6.04013 17.654 6.20383 17.4985C6.37572 17.343 6.56806 17.2366 6.78087 17.1793C6.95276 17.1384 7.10418 17.1466 7.23514 17.2039C7.3661 17.2612 7.46841 17.3471 7.54208 17.4617C7.61574 17.5763 7.65667 17.7072 7.66485 17.8546C7.68122 18.0019 7.65257 18.1451 7.57891 18.2843C7.53799 18.3661 7.4766 18.448 7.39475 18.5298C7.32108 18.6035 7.23514 18.6772 7.13692 18.7508C7.04689 18.8163 6.95685 18.8777 6.86682 18.935C6.78497 18.9923 6.71539 19.0414 6.6581 19.0823C6.42892 19.2624 6.19974 19.4384 5.97056 19.6102C5.74957 19.7821 5.52857 19.9581 5.30758 20.1382C5.69227 20.4001 6.06469 20.6743 6.42483 20.9608C6.79315 21.2472 7.16148 21.5296 7.5298 21.8079L7.57891 21.8693Z" fill="#41A3FF"/>
<path d="M32.8226 21.7711C33.1909 21.501 33.5511 21.2268 33.903 20.9485C34.2631 20.6702 34.6274 20.4001 34.9957 20.1382C34.7747 19.9581 34.5537 19.7821 34.3327 19.6102C34.1117 19.4384 33.8866 19.2665 33.6575 19.0946C33.6002 19.0537 33.5265 19.0046 33.4365 18.9473C33.3546 18.89 33.2687 18.8286 33.1786 18.7631C33.0886 18.6894 33.0027 18.6158 32.9208 18.5421C32.839 18.4684 32.7776 18.3907 32.7366 18.3088C32.663 18.1697 32.6302 18.0265 32.6384 17.8791C32.6466 17.7318 32.6834 17.6008 32.7489 17.4862C32.8226 17.3635 32.9249 17.2734 33.0559 17.2161C33.1868 17.1507 33.3382 17.1384 33.5101 17.1793C33.6575 17.212 33.7966 17.2857 33.9276 17.4003C34.0585 17.5067 34.1813 17.6049 34.2959 17.695C34.4841 17.8423 34.6724 17.9896 34.8607 18.1369C35.0489 18.2843 35.2372 18.4357 35.4254 18.5912C35.5482 18.6894 35.6341 18.759 35.6832 18.7999C35.7405 18.8409 35.7896 18.8818 35.8306 18.9227C35.8797 18.9554 35.937 18.9964 36.0025 19.0455C36.0679 19.0946 36.1662 19.1723 36.2971 19.2788C36.4526 19.3933 36.5918 19.5079 36.7145 19.6225C36.8455 19.7289 36.9315 19.8803 36.9724 20.0768C36.9969 20.2159 36.9765 20.3469 36.911 20.4697C36.8455 20.5843 36.7596 20.6907 36.6532 20.7889C36.5549 20.8789 36.4444 20.9608 36.3217 21.0344C36.1989 21.1081 36.0966 21.1777 36.0147 21.2431C35.7283 21.456 35.4459 21.6688 35.1676 21.8816C34.8893 22.0944 34.6069 22.3072 34.3204 22.52C34.1977 22.61 34.0749 22.7042 33.9521 22.8024C33.8293 22.9088 33.6943 22.9825 33.547 23.0234C33.3423 23.0807 33.1664 23.0807 33.019 23.0234C32.8717 22.9661 32.7612 22.8761 32.6875 22.7533C32.6139 22.6305 32.5811 22.4873 32.5893 22.3236C32.5975 22.1517 32.6548 21.9839 32.7612 21.8202L32.8226 21.7711Z" fill="#42A3FF"/>
<defs>
<linearGradient id="paint0_linear_268_805" x1="4.36107e-07" y1="1.33333" x2="40" y2="40" gradientUnits="userSpaceOnUse">
<stop stop-color="#0B1B36"/>
<stop offset="1" stop-color="#0F51A1"/>
</linearGradient>
</defs>
</svg>
