<svg width="40" height="40" viewBox="0 0 40 40" fill="none" xmlns="http://www.w3.org/2000/svg">
<rect width="40" height="40" rx="8.88889" fill="#D0E1FD"/>
<path d="M15.705 13.2775C15.8884 12.9795 16.1118 12.8306 16.3754 12.8306C16.5473 12.8306 16.702 12.8936 16.8395 13.0196C16.977 13.1457 17.0457 13.3118 17.0457 13.5181C17.0457 13.6212 17.0171 13.7473 16.9598 13.8963C16.1004 15.9016 15.2352 17.8954 14.3643 19.8778C13.5049 21.8602 12.6398 23.8541 11.7689 25.8594C11.6772 25.9855 11.5741 26.0714 11.4595 26.1172C11.3449 26.1745 11.236 26.2032 11.1329 26.2032C10.961 26.2032 10.8121 26.1402 10.686 26.0141C10.56 25.8881 10.4969 25.7105 10.4969 25.4813C10.4969 25.4469 10.4969 25.4068 10.4969 25.361C10.4969 25.3266 10.5027 25.2865 10.5141 25.2406C11.3735 23.2353 12.233 21.2415 13.0924 19.2591C13.9633 17.2767 14.8342 15.2828 15.705 13.2775ZM26.1755 15.1338C26.2328 14.8817 26.3359 14.7041 26.4848 14.601C26.6453 14.4864 26.8057 14.4406 26.9661 14.4635C27.1266 14.4864 27.2698 14.5723 27.3958 14.7213C27.5219 14.8588 27.5792 15.0536 27.5677 15.3057C27.5104 15.6839 27.4589 16.062 27.413 16.4401C27.3672 16.8068 27.3156 17.1735 27.2583 17.5402H29.2178C29.4355 17.609 29.596 17.7121 29.6991 17.8496C29.8022 17.9871 29.8481 18.1303 29.8366 18.2793C29.8366 18.4168 29.7793 18.5543 29.6647 18.6918C29.5501 18.8179 29.384 18.9038 29.1662 18.9497H27.0693C27.012 19.3163 26.9604 19.6773 26.9146 20.0325C26.8802 20.3878 26.8343 20.743 26.7771 21.0982H28.7537C28.9714 21.167 29.1319 21.2701 29.235 21.4076C29.3381 21.5451 29.384 21.6884 29.3725 21.8373C29.3725 21.9748 29.3152 22.1123 29.2006 22.2498C29.086 22.3759 28.9199 22.4618 28.7022 22.5077H26.588C26.5307 22.9431 26.4734 23.3786 26.4161 23.814C26.3588 24.238 26.3015 24.6677 26.2442 25.1031C26.164 25.3094 26.0494 25.4584 25.9004 25.55C25.7515 25.6417 25.6025 25.6761 25.4535 25.6532C25.316 25.6417 25.1843 25.5729 25.0582 25.4469C24.9436 25.3323 24.8749 25.1604 24.8519 24.9312C24.9092 24.5302 24.9608 24.1291 25.0066 23.7281C25.0639 23.3155 25.1212 22.9087 25.1785 22.5077H22.2737C22.2164 22.9431 22.1534 23.3786 22.0846 23.814C22.0273 24.238 21.97 24.6677 21.9127 25.1031C21.8325 25.3094 21.7179 25.4584 21.569 25.55C21.42 25.6417 21.271 25.6761 21.1221 25.6532C20.9845 25.6417 20.8528 25.5729 20.7267 25.4469C20.6121 25.3323 20.5434 25.1604 20.5205 24.9312C20.5777 24.5302 20.6293 24.1291 20.6752 23.7281C20.7324 23.3155 20.7897 22.9087 20.847 22.5077H19.1969C18.9448 22.4733 18.7558 22.3874 18.6297 22.2498C18.5151 22.1009 18.4578 21.9462 18.4578 21.7858C18.4693 21.6139 18.5381 21.4592 18.6641 21.3217C18.8016 21.1842 18.9964 21.1097 19.2485 21.0982H21.0361C21.0934 20.743 21.1392 20.3878 21.1736 20.0325C21.2195 19.6773 21.271 19.3163 21.3283 18.9497H19.7298C19.4777 18.9153 19.2886 18.8293 19.1626 18.6918C19.048 18.5429 18.9907 18.3882 18.9907 18.2277C19.0021 18.0559 19.0709 17.9012 19.1969 17.7637C19.3345 17.6262 19.5293 17.5517 19.7814 17.5402H21.5174C21.5747 17.1391 21.6262 16.7438 21.6721 16.3542C21.7294 15.9531 21.7867 15.5521 21.844 15.151C21.9013 14.8989 22.0044 14.7213 22.1534 14.6182C22.3138 14.5036 22.4742 14.4577 22.6346 14.4807C22.7951 14.5036 22.9383 14.5895 23.0643 14.7385C23.1904 14.876 23.2477 15.0708 23.2362 15.3229L22.9268 17.5402H25.8317C25.889 17.1391 25.9463 16.7381 26.0036 16.337C26.0609 15.936 26.1182 15.5349 26.1755 15.1338ZM25.3676 21.0982C25.4249 20.743 25.4707 20.3878 25.5051 20.0325C25.5509 19.6773 25.5968 19.3163 25.6426 18.9497H22.7378C22.6919 19.3163 22.6461 19.6773 22.6003 20.0325C22.5544 20.3878 22.5086 20.743 22.4628 21.0982H25.3676Z" fill="#18186D"/>
<path d="M8.72099 21.6823C8.80939 21.8149 8.85359 21.9549 8.85359 22.1022C8.85359 22.2422 8.81676 22.3674 8.74309 22.4779C8.66943 22.581 8.5663 22.6584 8.4337 22.7099C8.30847 22.7615 8.16114 22.7652 7.99171 22.721C7.85912 22.6842 7.73757 22.6215 7.62707 22.5331C7.51657 22.4448 7.40608 22.36 7.29558 22.279C7.03775 22.0875 6.78361 21.8959 6.53315 21.7044C6.28269 21.5129 6.02855 21.3214 5.77072 21.1298C5.69705 21.0709 5.60497 21.0083 5.49448 20.942C5.39134 20.8757 5.2919 20.802 5.19613 20.721C5.10037 20.6326 5.02302 20.5368 4.96409 20.4337C4.90516 20.3306 4.88306 20.2164 4.89779 20.0912C4.92726 19.8996 5.0046 19.7523 5.12983 19.6492C5.26243 19.5387 5.40239 19.4282 5.54972 19.3177C5.80018 19.1262 6.04696 18.9309 6.29006 18.732C6.54052 18.5331 6.79098 18.3343 7.04144 18.1354C7.18877 18.0175 7.3361 17.8886 7.48343 17.7486C7.63812 17.6087 7.81123 17.5129 8.00276 17.4613C8.15746 17.4245 8.29374 17.4319 8.4116 17.4834C8.52947 17.535 8.62155 17.6123 8.68784 17.7155C8.75414 17.8186 8.79098 17.9365 8.79834 18.0691C8.81308 18.2017 8.78729 18.3306 8.72099 18.4558C8.68416 18.5295 8.62891 18.6031 8.55525 18.6768C8.48895 18.7431 8.4116 18.8094 8.3232 18.8757C8.24217 18.9346 8.16114 18.9899 8.08011 19.0414C8.00645 19.093 7.94383 19.1372 7.89227 19.174C7.686 19.3361 7.47974 19.4945 7.27348 19.6492C7.07459 19.8039 6.87569 19.9622 6.6768 20.1243C7.02302 20.36 7.3582 20.6068 7.68232 20.8646C8.01381 21.1225 8.3453 21.3766 8.6768 21.6271L8.72099 21.6823Z" fill="#18186D"/>
<path d="M31.2403 21.5939C31.5718 21.3508 31.8959 21.1041 32.2127 20.8536C32.5368 20.6031 32.8646 20.36 33.1961 20.1243C32.9972 19.9622 32.7983 19.8039 32.5994 19.6492C32.4006 19.4945 32.198 19.3398 31.9917 19.1851C31.9401 19.1483 31.8738 19.1041 31.7928 19.0525C31.7192 19.0009 31.6418 18.9457 31.5608 18.8867C31.4797 18.8204 31.4024 18.7541 31.3287 18.6878C31.2551 18.6215 31.1998 18.5516 31.163 18.4779C31.0967 18.3527 31.0672 18.2238 31.0746 18.0912C31.082 17.9586 31.1151 17.8407 31.174 17.7376C31.2403 17.6271 31.3324 17.546 31.4503 17.4945C31.5681 17.4355 31.7044 17.4245 31.8591 17.4613C31.9917 17.4908 32.1169 17.5571 32.2348 17.6602C32.3527 17.756 32.4632 17.8444 32.5663 17.9254C32.7357 18.058 32.9052 18.1906 33.0746 18.3232C33.244 18.4558 33.4134 18.5921 33.5829 18.732C33.6934 18.8204 33.7707 18.8831 33.8149 18.9199C33.8665 18.9567 33.9107 18.9936 33.9475 19.0304C33.9917 19.0599 34.0433 19.0967 34.1022 19.1409C34.1611 19.1851 34.2495 19.2551 34.3674 19.3508C34.5074 19.454 34.6326 19.5571 34.7431 19.6602C34.861 19.756 34.9383 19.8923 34.9751 20.0691C34.9972 20.1943 34.9788 20.3122 34.9199 20.4227C34.861 20.5258 34.7836 20.6215 34.6878 20.7099C34.5994 20.791 34.5 20.8646 34.3895 20.9309C34.279 20.9972 34.1869 21.0599 34.1133 21.1188C33.8554 21.3103 33.6013 21.5018 33.3508 21.6934C33.1004 21.8849 32.8462 22.0764 32.5884 22.268C32.4779 22.349 32.3674 22.4337 32.2569 22.5221C32.1464 22.6179 32.0249 22.6842 31.8923 22.721C31.7081 22.7726 31.5497 22.7726 31.4171 22.721C31.2845 22.6694 31.1851 22.5884 31.1188 22.4779C31.0525 22.3674 31.023 22.2385 31.0304 22.0912C31.0378 21.9365 31.0893 21.7855 31.1851 21.6381L31.2403 21.5939Z" fill="#18186D"/>
</svg>
