<svg width="32" height="32" viewBox="0 0 32 32" fill="none" xmlns="http://www.w3.org/2000/svg">
<path d="M5.63281 22V21.0156L6.90625 20.7969V11.8359L5.63281 11.6172V10.625H9.71875V11.6172L8.44531 11.8359V15.7656H13.8828V11.8359L12.6094 11.6172V10.625H16.6953V11.6172L15.4219 11.8359V20.7969L16.6953 21.0156V22H12.6094V21.0156L13.8828 20.7969V16.9766H8.44531V20.7969L9.71875 21.0156V22H5.63281ZM18.0859 22V20.9453L21.8125 16.8047C22.2552 16.3099 22.6016 15.888 22.8516 15.5391C23.1016 15.1849 23.276 14.8646 23.375 14.5781C23.474 14.2917 23.5234 13.9948 23.5234 13.6875C23.5234 13.1198 23.3516 12.6432 23.0078 12.2578C22.6641 11.8672 22.1719 11.6719 21.5312 11.6719C20.8646 11.6719 20.3438 11.8724 19.9688 12.2734C19.599 12.6745 19.4141 13.2422 19.4141 13.9766H17.9375L17.9219 13.9297C17.9062 13.2734 18.0443 12.6849 18.3359 12.1641C18.6276 11.638 19.0495 11.224 19.6016 10.9219C20.1589 10.6146 20.8203 10.4609 21.5859 10.4609C22.3047 10.4609 22.9219 10.599 23.4375 10.875C23.9583 11.1458 24.3594 11.5182 24.6406 11.9922C24.9219 12.4661 25.0625 13.0104 25.0625 13.625C25.0625 14.25 24.8776 14.8724 24.5078 15.4922C24.1432 16.112 23.6276 16.7812 22.9609 17.5L19.9688 20.7578L19.9844 20.7969H24.0234L24.1484 19.4922H25.4531V22H18.0859Z" fill="#222222"/>
</svg>
