<svg xmlns="http://www.w3.org/2000/svg" width="100%" height="100%" viewBox="0 0 20 22" fill="currentColor" id="experiments">
  <path d="M18.8345 14.5084L13.9827 8.44741V2.67241H15.793C15.793 2.67241 16.5135 2.67241 16.5135 1.58621C16.5135 0.5 15.793 0.5 15.793 0.5H4.20671C4.20671 0.5 3.47887 0.5 3.47887 1.58621C3.47887 2.67241 4.20671 2.67241 4.20671 2.67241H6.01708V8.44741L1.1653 14.5084C0.658143 15.1412 0.340173 15.9044 0.248059 16.71C0.155946 17.5157 0.293441 18.3309 0.644687 19.0618C0.995932 19.7927 1.54662 20.4094 2.23324 20.8408C2.91986 21.2722 3.71444 21.5007 4.52533 21.5H15.4744C16.2853 21.5007 17.0799 21.2722 17.7665 20.8408C18.4531 20.4094 19.0038 19.7927 19.3551 19.0618C19.7063 18.3309 19.8438 17.5157 19.7517 16.71C19.6596 15.9044 19.3416 15.1412 18.8345 14.5084ZM8.18951 9.20776V2.67241H11.8102V9.20776L14.7068 12.8103H5.29293L8.18951 9.20776ZM15.4744 19.3276H4.52533C4.12392 19.3279 3.7306 19.2146 3.39076 19.001C3.05092 18.7873 2.77841 18.482 2.60467 18.1201C2.43093 17.7582 2.36303 17.3546 2.40881 16.9558C2.45459 16.557 2.61219 16.1793 2.86342 15.8662L3.58757 14.9828H16.4303L17.1544 15.8662C17.4067 16.1805 17.5645 16.5599 17.6096 16.9603C17.6547 17.3608 17.5853 17.7658 17.4093 18.1283C17.2334 18.4908 16.9581 18.796 16.6156 19.0083C16.2731 19.2206 15.8774 19.3313 15.4744 19.3276Z" fill="currentColor"/>
</svg>