<svg width="24" height="24" viewBox="0 0 24 24" fill="none" xmlns="http://www.w3.org/2000/svg" id="orientation">
  <path
    d="M4.75002 14.5436C4.79731 14.2038 4.56018 13.89 4.22038 13.8427C3.88058 13.7955 3.56679 14.0326 3.51951 14.3724L4.75002 14.5436ZM12.2142 21.1553L12.5745 21.6613C12.7087 21.5658 12.7994 21.4208 12.8268 21.2583C12.8541 21.0958 12.8158 20.9292 12.7202 20.795L12.2142 21.1553ZM9.94186 22.0105C9.66238 22.2094 9.59712 22.5973 9.79609 22.8768C9.99506 23.1563 10.3829 23.2215 10.6624 23.0226L9.94186 22.0105ZM11.3588 18.8829C11.1598 18.6035 10.7719 18.5382 10.4925 18.7372C10.213 18.9362 10.1478 19.3241 10.3467 19.6035L11.3588 18.8829ZM11.2582 21.8359L10.8979 21.3298L10.8979 21.3298L11.2582 21.8359ZM3.51951 14.3724C3.22435 16.4935 3.76317 18.534 5.26912 19.9577C6.77076 21.3773 9.12894 22.0849 12.2754 21.7734L12.153 20.5371C9.23699 20.8258 7.28187 20.1509 6.12261 19.0549C4.96767 17.963 4.49799 16.3548 4.75002 14.5436L3.51951 14.3724ZM12.7202 20.795L11.3588 18.8829L10.3467 19.6035L11.7082 21.5156L12.7202 20.795ZM11.8539 20.6492L10.8979 21.3298L11.6184 22.3419L12.5745 21.6613L11.8539 20.6492ZM10.8979 21.3298L9.94186 22.0105L10.6624 23.0226L11.6184 22.3419L10.8979 21.3298Z"
    fill="currentColor" />
  <path
    d="M19.4055 9.21642C19.3703 9.55768 19.6183 9.86291 19.9596 9.89817C20.3008 9.93344 20.6061 9.68538 20.6413 9.34412L19.4055 9.21642ZM11.7127 2.87237L11.3348 2.37935C11.204 2.47958 11.1184 2.62765 11.0968 2.79099C11.0752 2.95433 11.1194 3.11955 11.2197 3.25031L11.7127 2.87237ZM13.9534 1.93748C14.2257 1.72877 14.2772 1.33884 14.0685 1.06656C13.8598 0.794273 13.4699 0.742736 13.1976 0.951447L13.9534 1.93748ZM12.6478 5.11308C12.8565 5.38535 13.2464 5.43686 13.5187 5.22813C13.7909 5.0194 13.8424 4.62947 13.6337 4.3572L12.6478 5.11308ZM12.6441 2.15842L13.022 2.65143L13.022 2.65143L12.6441 2.15842ZM20.6413 9.34412C20.8614 7.21394 20.2509 5.19373 18.6957 3.82405C17.1449 2.45829 14.7632 1.83439 11.6297 2.25674L11.7956 3.48799C14.6996 3.09657 16.6774 3.70205 17.8746 4.75641C19.0673 5.80684 19.5935 7.39748 19.4055 9.21642L20.6413 9.34412ZM11.2197 3.25031L12.6478 5.11308L13.6337 4.3572L12.2056 2.49442L11.2197 3.25031ZM12.0906 3.36538L13.022 2.65143L12.2662 1.6654L11.3348 2.37935L12.0906 3.36538ZM13.022 2.65143L13.9534 1.93748L13.1976 0.951447L12.2662 1.6654L13.022 2.65143Z"
    fill="currentColor" />
  <rect x="8.34484" y="6.60655" width="7.05606" height="10.3724" stroke="currentColor" stroke-width="1.52908"
    stroke-linejoin="round" />
  <ellipse cx="11.8808" cy="15.0937" rx="0.552699" ry="0.552707" fill="currentColor" />
</svg>