<svg width="119" height="22" viewBox="0 0 119 22" fill="none" xmlns="http://www.w3.org/2000/svg">
<g clip-path="url(#clip0_36_494)">
<path d="M7.64561 21.5005H7.56711C3.8307 21.4848 0.0471892 18.4915 9.15527e-05 13.4766V13.2259C0.0471892 8.17959 3.8464 5.12362 7.59851 5.12362C10.7227 5.12362 12.7479 6.89452 14.0352 8.86915V0.500488H15.5423V21.14H14.0352V17.6453C12.6851 19.6826 10.707 21.4848 7.64561 21.5005ZM7.7555 6.56541C4.34877 6.56541 1.61711 9.04153 1.61711 13.2415V13.3042C1.61711 17.4102 4.47437 20.043 7.7555 20.043C11.0366 20.043 14.1294 17.3162 14.1294 13.3356V13.2729C14.1294 9.26094 11.0052 6.56541 7.7555 6.56541Z" fill="#030618"/>
<path d="M38.2121 17.1908V6.91019H35.9358V5.51541H38.2121V0.500488H39.7193V5.51541H45.214V6.89452H39.7193V17.0184C39.7193 19.2594 41.038 20.0744 42.8434 20.0744C43.6127 20.0744 44.2563 19.9177 45.1512 19.5259V20.9363C44.3505 21.3124 43.5813 21.4848 42.6079 21.4848C40.1745 21.5005 38.2121 20.1841 38.2121 17.1908Z" fill="#030618"/>
<path d="M48.0392 11.0788V11.0005C48.0392 5.249 52.3878 0.500488 58.4948 0.500488C62.2469 0.500488 64.6018 1.78556 66.4543 3.88556L63.0005 7.64676C61.7289 6.299 60.4729 5.42138 58.4634 5.42138C55.6376 5.42138 53.6281 7.94452 53.6281 10.9221V11.0005C53.6281 14.0878 55.6062 16.5639 58.6832 16.5639C60.5828 16.5639 61.8859 15.7333 63.2517 14.4169L66.5642 17.802C64.6332 19.949 62.4039 21.4848 58.4163 21.4848C52.4192 21.5005 48.0392 16.8303 48.0392 11.0788Z" fill="#030618"/>
<path d="M69.3908 0.876608H75.074V3.71317C76.3927 2.03631 78.1039 0.500488 80.9926 0.500488C83.6143 0.500488 85.5924 1.66019 86.6443 3.66616C88.4026 1.61317 90.5063 0.500488 93.2379 0.500488C97.461 0.500488 100.004 3.03929 100.004 7.85049V20.8736H94.3212V9.71541C94.3212 7.03556 93.128 5.64079 90.993 5.64079C88.8579 5.64079 87.5548 7.01989 87.5548 9.71541V20.8736H81.8717V9.71541C81.8717 7.03556 80.6786 5.64079 78.5435 5.64079C76.4084 5.64079 75.1054 7.01989 75.1054 9.71541V20.8736H69.4222V0.876608" fill="#030618"/>
<path d="M102.516 18.1626L104.98 14.4328C107.178 15.9999 109.486 16.8305 111.386 16.8305C113.05 16.8305 113.803 16.235 113.803 15.3417C113.803 14.041 111.841 13.6178 109.596 12.9596C106.754 12.1447 103.536 10.8283 103.536 6.94173C103.536 2.78875 106.864 0.516357 110.962 0.516357C113.536 0.516357 116.347 1.3783 118.545 2.83576L116.347 6.75367C114.337 5.59397 112.328 4.88875 110.852 4.88875C109.455 4.88875 108.733 5.48427 108.733 6.26785C108.733 7.45889 110.664 7.99173 112.861 8.7283C115.703 9.6686 119 11.0007 119 14.6678C119 19.1813 115.624 21.2029 111.229 21.2029C108.387 21.1873 105.2 20.247 102.516 18.1626Z" fill="#030618"/>
<path d="M26.3906 5.04517C21.7436 5.04517 18.3526 8.86905 18.3526 13.2728V13.3355C18.3526 17.7392 21.7122 21.5004 26.3278 21.5004C30.9434 21.5004 34.3658 17.6765 34.3658 13.2728V13.2101C34.3815 8.80636 31.0062 5.04517 26.3906 5.04517Z" fill="#B626E8"/>
</g>
<defs>
<clipPath id="clip0_36_494">
<rect width="119" height="21" fill="white" transform="translate(0 0.5)"/>
</clipPath>
</defs>
</svg>
