<svg width="32" height="32" viewBox="0 0 32 32" fill="none" xmlns="http://www.w3.org/2000/svg">
<path d="M6.47461 16V15.2617L7.42969 15.0977V8.37695L6.47461 8.21289V7.46875H10.3945C11.3047 7.46875 12.0117 7.70312 12.5156 8.17188C13.0234 8.64062 13.2773 9.25781 13.2773 10.0234C13.2773 10.7969 13.0234 11.416 12.5156 11.8809C12.0117 12.3457 11.3047 12.5781 10.3945 12.5781H8.58398V15.0977L9.53906 15.2617V16H6.47461ZM8.58398 11.6758H10.3945C10.9727 11.6758 11.4043 11.5215 11.6895 11.2129C11.9785 10.9004 12.123 10.5078 12.123 10.0352C12.123 9.5625 11.9785 9.16797 11.6895 8.85156C11.4043 8.53516 10.9727 8.37695 10.3945 8.37695H8.58398V11.6758Z" fill="#222222"/>
<rect x="15" y="14" width="11" height="1" fill="#222222"/>
<rect x="6" y="18" width="20" height="1" fill="#222222"/>
<rect x="6" y="22" width="20" height="1" fill="#222222"/>
</svg>
