<svg width="32" height="32" viewBox="0 0 32 32" fill="none" xmlns="http://www.w3.org/2000/svg">
<path d="M5.63281 22V21.0156L6.90625 20.7969V11.8359L5.63281 11.6172V10.625H9.71875V11.6172L8.44531 11.8359V15.7656H13.8828V11.8359L12.6094 11.6172V10.625H16.6953V11.6172L15.4219 11.8359V20.7969L16.6953 21.0156V22H12.6094V21.0156L13.8828 20.7969V16.9766H8.44531V20.7969L9.71875 21.0156V22H5.63281ZM21.4688 22.1641C20.776 22.1641 20.1589 22.0391 19.6172 21.7891C19.0755 21.5339 18.651 21.1745 18.3438 20.7109C18.0417 20.2422 17.8984 19.6875 17.9141 19.0469L17.9375 19H19.4062C19.4062 19.599 19.5885 20.0755 19.9531 20.4297C20.3229 20.7839 20.8281 20.9609 21.4688 20.9609C22.1198 20.9609 22.6302 20.7839 23 20.4297C23.3698 20.0755 23.5547 19.5521 23.5547 18.8594C23.5547 18.1562 23.3906 17.638 23.0625 17.3047C22.7344 16.9714 22.2161 16.8047 21.5078 16.8047H20.1641V15.6016H21.5078C22.1901 15.6016 22.6719 15.4323 22.9531 15.0938C23.2396 14.75 23.3828 14.2734 23.3828 13.6641C23.3828 12.3359 22.7448 11.6719 21.4688 11.6719C20.8698 11.6719 20.388 11.849 20.0234 12.2031C19.6641 12.5521 19.4844 13.0182 19.4844 13.6016H18.0078L17.9922 13.5547C17.9766 12.9818 18.112 12.4609 18.3984 11.9922C18.6901 11.5234 19.099 11.151 19.625 10.875C20.1562 10.599 20.7708 10.4609 21.4688 10.4609C22.5208 10.4609 23.3594 10.7422 23.9844 11.3047C24.6094 11.862 24.9219 12.6589 24.9219 13.6953C24.9219 14.1641 24.7786 14.6328 24.4922 15.1016C24.2109 15.5651 23.7865 15.9193 23.2188 16.1641C23.901 16.388 24.3828 16.7396 24.6641 17.2188C24.9505 17.6979 25.0938 18.2344 25.0938 18.8281C25.0938 19.5208 24.9375 20.1172 24.625 20.6172C24.3177 21.112 23.8906 21.4948 23.3438 21.7656C22.7969 22.0312 22.1719 22.1641 21.4688 22.1641Z" fill="#222222"/>
</svg>
