<svg id="tree-folder" viewBox="0 0 24 24" fill="none" xmlns="http://www.w3.org/2000/svg">
  <path
    d="M3.25 5.08333C3.25 5.56956 3.44315 6.03588 3.78697 6.3797C4.13079 6.72351 4.5971 6.91667 5.08333 6.91667H7.83333M3.25 3.25V15.1667C3.25 15.6529 3.44315 16.1192 3.78697 16.463C4.13079 16.8068 4.5971 17 5.08333 17H7.83333M18.8333 9.66667C19.0764 9.66667 19.3096 9.57009 19.4815 9.39818C19.6534 9.22627 19.75 8.99312 19.75 8.75V6C19.75 5.75688 19.6534 5.52373 19.4815 5.35182C19.3096 5.17991 19.0764 5.08333 18.8333 5.08333H16.5417C16.3994 5.08333 16.259 5.0502 16.1317 4.98656C16.0044 4.92292 15.8937 4.83051 15.8083 4.71667L14.9833 3.61667C14.8979 3.50282 14.7872 3.41042 14.6599 3.34677C14.5327 3.28313 14.3923 3.25 14.25 3.25H12.4167C12.1736 3.25 11.9404 3.34658 11.7685 3.51849C11.5966 3.69039 11.5 3.92355 11.5 4.16667V8.75C11.5 8.99312 11.5966 9.22627 11.7685 9.39818C11.9404 9.57009 12.1736 9.66667 12.4167 9.66667H18.8333ZM18.8333 19.75C19.0764 19.75 19.3096 19.6534 19.4815 19.4815C19.6534 19.3096 19.75 19.0764 19.75 18.8333V16.0833C19.75 15.8402 19.6534 15.6071 19.4815 15.4352C19.3096 15.2632 19.0764 15.1667 18.8333 15.1667H16.175C16.0073 15.1645 15.8434 15.1163 15.7012 15.0274C15.5589 14.9385 15.4438 14.8123 15.3683 14.6625L14.9833 13.8833C14.9118 13.7194 14.7938 13.5799 14.6439 13.4822C14.4941 13.3845 14.3189 13.3327 14.14 13.3333H12.4167C12.1736 13.3333 11.9404 13.4299 11.7685 13.6018C11.5966 13.7737 11.5 14.0069 11.5 14.25V18.8333C11.5 19.0764 11.5966 19.3096 11.7685 19.4815C11.9404 19.6534 12.1736 19.75 12.4167 19.75H18.8333Z"
    stroke="currentColor" stroke-width="1.5" stroke-linecap="round" stroke-linejoin="round" />
</svg>